<svg width="174" height="32" viewBox="0 0 174 32" fill="none" xmlns="http://www.w3.org/2000/svg">
<path d="M25.2965 9.93648C25.3569 9.93648 25.4271 9.93648 25.4875 9.94403C26.4189 9.97533 27.2003 10.2074 27.8004 10.7406C28.4361 11.2737 28.7664 12.0271 28.7664 12.9833L28.7653 18.1909C28.7653 19.117 28.434 19.8617 27.781 20.4186C27.1539 20.9669 26.3358 21.2497 25.2997 21.2648H12.5381L12.5413 18.4543V18.028L12.5457 13.4571L6.88367 13.4593L6.88475 18.4532L6.87935 25.8982H26.746C29.088 25.8982 30.9595 25.2161 32.3529 23.8281C33.7376 22.4639 34.4252 20.887 34.4262 19.1159L34.4273 12.1523C34.4273 11.345 34.2967 10.5916 34.0269 9.88575C33.6869 8.97591 33.1311 8.1524 32.3561 7.40013C30.9984 6.05101 29.1269 5.3689 26.7503 5.3689H4.48547L9.01312 9.94296" fill="black"/>
<path d="M45.7772 17.6319L49.8688 10.7049L58.9241 25.8993H65.4701L53.0862 5.3689H46.8177L34.4263 25.8993L40.8956 25.8971L43.0801 22.1984L45.7772 17.6319Z" fill="black"/>
<path d="M42.2911 21.0888V17.5574H49.8473L51.9519 21.0888H42.2911Z" fill="black"/>
<path d="M82.2024 22.6916V18.3572H86.1785V22.6916H85.3529V18.8407L85.545 19.0393H82.8359L83.0281 18.8407V22.6916H82.2024Z" fill="black"/>
<path d="M87.4337 22.6916V18.3572H89.2782C89.6754 18.3572 90.0154 18.4187 90.2993 18.5396C90.5831 18.6615 90.8022 18.8375 90.9555 19.0695C91.1087 19.3005 91.1854 19.5768 91.1854 19.8995C91.1854 20.2179 91.1087 20.4909 90.9555 20.7198C90.8022 20.9486 90.5831 21.1267 90.2993 21.2519C90.0154 21.3781 89.6754 21.4407 89.2782 21.4407H87.9011L88.2659 21.0695V22.6916H87.4337ZM88.2659 21.1569L87.9011 20.7608H89.2394C89.6063 20.7608 89.8826 20.6852 90.0683 20.5352C90.2539 20.3841 90.3467 20.1726 90.3467 19.9006C90.3467 19.6286 90.2539 19.417 90.0683 19.2659C89.8826 19.1148 89.6063 19.0404 89.2394 19.0404H87.9011L88.2659 18.6443V21.1569Z" fill="black"/>
<path d="M94.1189 22.7541C93.7735 22.7541 93.4519 22.698 93.155 22.5868C92.8582 22.4757 92.6014 22.3181 92.3833 22.1163C92.1653 21.9144 91.997 21.6781 91.8772 21.4072C91.7574 21.1373 91.698 20.8427 91.698 20.5254C91.698 20.2037 91.7574 19.9069 91.8772 19.6371C91.997 19.3673 92.1653 19.132 92.3833 18.9313C92.6014 18.7316 92.8572 18.5751 93.1518 18.4639C93.4465 18.3528 93.7681 18.2966 94.1189 18.2966C94.4642 18.2966 94.7848 18.3517 95.0794 18.4607C95.3741 18.5697 95.6288 18.7251 95.8447 18.9248C96.0605 19.1255 96.2278 19.3608 96.3476 19.6339C96.4674 19.9059 96.5268 20.2037 96.5268 20.5254C96.5268 20.847 96.4674 21.1438 96.3476 21.4136C96.2278 21.6845 96.0605 21.9209 95.8447 22.1227C95.6288 22.3246 95.3741 22.4811 95.0794 22.5901C94.7848 22.6991 94.4642 22.7541 94.1189 22.7541ZM94.1189 22.0483C94.3455 22.0483 94.5527 22.0116 94.7427 21.9371C94.9326 21.8626 95.0978 21.7579 95.2392 21.6209C95.3795 21.4849 95.4896 21.3241 95.5684 21.1384C95.6471 20.9528 95.6871 20.7488 95.6871 20.5254C95.6871 20.302 95.6482 20.098 95.5716 19.9123C95.495 19.7267 95.3849 19.5659 95.2413 19.4299C95.0978 19.2939 94.9316 19.1881 94.7416 19.1137C94.5517 19.0392 94.3434 19.0025 94.1178 19.0025C93.8911 19.0025 93.6817 19.0392 93.4875 19.1137C93.2932 19.1881 93.1259 19.2939 92.9845 19.4331C92.8431 19.5724 92.733 19.7321 92.6521 19.9156C92.5711 20.0991 92.5301 20.302 92.5301 20.5254C92.5301 20.7445 92.5711 20.9463 92.6521 21.1319C92.733 21.3176 92.8442 21.4795 92.9845 21.6176C93.1248 21.7558 93.2932 21.8626 93.4875 21.936C93.6828 22.0105 93.8922 22.0483 94.1189 22.0483Z" fill="black"/>
<path d="M97.4485 22.6916V18.3572H98.1338L100.093 21.5206H99.7344L101.669 18.3572H102.347L102.36 22.6916H101.56V19.553H101.726L100.093 22.2027H99.715L98.0496 19.553H98.2482V22.6916H97.4485Z" fill="black"/>
<path d="M105.684 19.825C106.221 19.825 106.635 19.9405 106.926 20.1715C107.216 20.4024 107.362 20.75 107.362 21.2119C107.362 21.6987 107.202 22.0678 106.882 22.3171C106.561 22.5664 106.117 22.6916 105.55 22.6916H103.616V18.3572H104.441V19.825H105.684ZM105.51 22.0732C105.83 22.0732 106.079 22.0009 106.256 21.8563C106.433 21.7116 106.521 21.5012 106.521 21.2249C106.521 20.9529 106.434 20.7543 106.259 20.6302C106.084 20.5061 105.834 20.4445 105.51 20.4445H104.44V22.0732H105.51ZM108.001 22.6916V18.3572H108.826V22.6916H108.001Z" fill="black"/>
<path d="M112.745 22.0105L112.56 22.2091V18.3582H113.379V22.2091L113.18 22.0105H115.222L115.017 22.2091V18.3582H115.843V22.6926H110.081V18.3582H110.906V22.2091L110.714 22.0105H112.745Z" fill="black"/>
<path d="M117.029 22.7477C116.957 22.7477 116.882 22.7433 116.808 22.7347C116.733 22.7261 116.654 22.712 116.568 22.6915L116.625 21.9857C116.685 22.0019 116.75 22.0105 116.818 22.0105C117.001 22.0105 117.146 21.9403 117.249 21.8C117.354 21.6597 117.43 21.4514 117.477 21.1751C117.523 20.8988 117.556 20.5556 117.573 20.1476L117.637 18.3582H120.934V22.6926H120.108V18.8417L120.307 19.0403H118.174L118.353 18.8363L118.308 20.1239C118.291 20.5491 118.258 20.9247 118.212 21.2507C118.165 21.5766 118.094 21.8518 118 22.0774C117.907 22.3019 117.78 22.4703 117.623 22.5825C117.467 22.6915 117.269 22.7477 117.029 22.7477Z" fill="black"/>
<path d="M123.029 22.0106H125.558V22.6916H122.196V18.3572H125.468V19.0382H123.029V22.0106ZM122.965 20.1596H125.194V20.8223H122.965V20.1596Z" fill="black"/>
<path d="M127.319 22.6916H126.487V18.3572H127.319V22.6916ZM129.701 20.8342H127.255V20.1467H129.701V20.8342ZM129.637 18.3583H130.463V22.6927H129.637V18.3583Z" fill="black"/>
<path d="M132.557 22.6916H131.725V18.3572H132.557V22.6916ZM134.939 20.8342H132.493V20.1467H134.939V20.8342ZM134.875 18.3583H135.701V22.6927H134.875V18.3583Z" fill="black"/>
<path d="M139.043 22.7541C138.698 22.7541 138.376 22.698 138.08 22.5868C137.783 22.4757 137.526 22.3181 137.308 22.1163C137.09 21.9144 136.922 21.6781 136.802 21.4072C136.682 21.1373 136.623 20.8427 136.623 20.5254C136.623 20.2037 136.682 19.9069 136.802 19.6371C136.922 19.3673 137.09 19.132 137.308 18.9313C137.526 18.7316 137.782 18.5751 138.076 18.4639C138.371 18.3528 138.693 18.2966 139.043 18.2966C139.389 18.2966 139.709 18.3517 140.004 18.4607C140.299 18.5697 140.553 18.7251 140.769 18.9248C140.985 19.1255 141.152 19.3608 141.272 19.6339C141.392 19.9059 141.451 20.2037 141.451 20.5254C141.451 20.847 141.392 21.1438 141.272 21.4136C141.152 21.6845 140.985 21.9209 140.769 22.1227C140.553 22.3246 140.299 22.4811 140.004 22.5901C139.709 22.6991 139.39 22.7541 139.043 22.7541ZM139.043 22.0483C139.27 22.0483 139.477 22.0116 139.667 21.9371C139.857 21.8626 140.022 21.7579 140.164 21.6209C140.304 21.4849 140.414 21.3241 140.493 21.1384C140.572 20.9528 140.612 20.7488 140.612 20.5254C140.612 20.302 140.573 20.098 140.496 19.9123C140.42 19.7267 140.309 19.5659 140.166 19.4299C140.022 19.2939 139.856 19.1881 139.666 19.1137C139.476 19.0392 139.268 19.0025 139.042 19.0025C138.816 19.0025 138.606 19.0392 138.412 19.1137C138.218 19.1881 138.05 19.2939 137.909 19.4331C137.768 19.5724 137.658 19.7321 137.577 19.9156C137.496 20.0991 137.455 20.302 137.455 20.5254C137.455 20.7445 137.496 20.9463 137.577 21.1319C137.658 21.3176 137.769 21.4795 137.909 21.6176C138.049 21.7558 138.218 21.8626 138.412 21.936C138.607 22.0105 138.818 22.0483 139.043 22.0483Z" fill="black"/>
<path d="M143.205 22.0106H145.734V22.6916H142.372V18.3572H145.644V19.0382H143.205V22.0106ZM143.142 20.1596H145.37V20.8223H143.142V20.1596Z" fill="black"/>
<path d="M84.2833 30.1841C83.9379 30.1841 83.6163 30.1279 83.3195 30.0168C83.0227 29.9056 82.7658 29.748 82.5478 29.5462C82.3298 29.3444 82.1614 29.108 82.0416 28.8371C81.9218 28.5673 81.8624 28.2726 81.8624 27.9553C81.8624 27.6337 81.9218 27.3369 82.0416 27.0671C82.1614 26.7972 82.3298 26.5619 82.5478 26.3612C82.7658 26.1615 83.0216 26.005 83.3162 25.8939C83.6109 25.7827 83.9325 25.7266 84.2833 25.7266C84.6287 25.7266 84.9492 25.7816 85.2439 25.8906C85.5385 25.9996 85.7932 26.155 86.0091 26.3547C86.2249 26.5555 86.3922 26.7908 86.512 27.0638C86.6318 27.3358 86.6912 27.6337 86.6912 27.9553C86.6912 28.2769 86.6318 28.5737 86.512 28.8436C86.3922 29.1145 86.2249 29.3508 86.0091 29.5527C85.7932 29.7545 85.5385 29.911 85.2439 30.02C84.9492 30.129 84.6297 30.1841 84.2833 30.1841ZM84.2833 29.4782C84.5099 29.4782 84.7172 29.4415 84.9071 29.367C85.0971 29.2926 85.2622 29.1879 85.4036 29.0508C85.545 28.9148 85.654 28.754 85.7339 28.5684C85.8127 28.3827 85.8526 28.1787 85.8526 27.9553C85.8526 27.7319 85.8137 27.5279 85.7371 27.3423C85.6605 27.1566 85.5504 26.9958 85.4068 26.8598C85.2633 26.7238 85.0971 26.6181 84.9071 26.5436C84.7172 26.4691 84.5089 26.4324 84.2833 26.4324C84.0566 26.4324 83.8473 26.4691 83.653 26.5436C83.4587 26.6181 83.2914 26.7238 83.15 26.862C83.0086 27.0001 82.8986 27.1609 82.8176 27.3444C82.7367 27.5279 82.6956 27.7319 82.6956 27.9542C82.6956 28.1733 82.7367 28.3752 82.8176 28.5608C82.8986 28.7464 83.0097 28.9083 83.15 29.0465C83.2903 29.1846 83.4587 29.2915 83.653 29.3649C83.8473 29.4404 84.0577 29.4782 84.2833 29.4782Z" fill="black"/>
<path d="M87.6128 30.1225V25.7881H91.1086V26.4573H88.4385V27.516H89.7638C90.3013 27.516 90.7104 27.624 90.9899 27.8377C91.2695 28.0524 91.4098 28.3665 91.4098 28.7788C91.4098 29.2041 91.2543 29.5343 90.9457 29.7696C90.6359 30.0049 90.1999 30.1225 89.6365 30.1225H87.6128ZM88.4395 29.503H89.5922C89.9128 29.503 90.1556 29.4437 90.3218 29.3239C90.488 29.2041 90.5711 29.0314 90.5711 28.8036C90.5711 28.3579 90.2441 28.1345 89.5911 28.1345H88.4385V29.503H88.4395Z" fill="black"/>
<path d="M94.4006 30.1841C94.0552 30.1841 93.7336 30.1279 93.4368 30.0168C93.14 29.9056 92.8831 29.748 92.6651 29.5462C92.4471 29.3444 92.2787 29.108 92.1589 28.8371C92.0391 28.5673 91.9797 28.2726 91.9797 27.9553C91.9797 27.6337 92.0391 27.3369 92.1589 27.0671C92.2787 26.7972 92.4471 26.5619 92.6651 26.3612C92.8831 26.1615 93.1389 26.005 93.4335 25.8939C93.7282 25.7827 94.0498 25.7266 94.4006 25.7266C94.746 25.7266 95.0665 25.7816 95.3612 25.8906C95.6558 25.9996 95.9105 26.155 96.1264 26.3547C96.3423 26.5555 96.5096 26.7908 96.6294 27.0638C96.7492 27.3358 96.8085 27.6337 96.8085 27.9553C96.8085 28.2769 96.7492 28.5737 96.6294 28.8436C96.5096 29.1145 96.3423 29.3508 96.1264 29.5527C95.9105 29.7545 95.6558 29.911 95.3612 30.02C95.0665 30.129 94.746 30.1841 94.4006 30.1841ZM94.4006 29.4782C94.6273 29.4782 94.8345 29.4415 95.0244 29.367C95.2144 29.2926 95.3795 29.1879 95.5209 29.0508C95.6612 28.9148 95.7713 28.754 95.8501 28.5684C95.9289 28.3827 95.9688 28.1787 95.9688 27.9553C95.9688 27.7319 95.93 27.5279 95.8533 27.3423C95.7767 27.1566 95.6666 26.9958 95.5231 26.8598C95.3795 26.7238 95.2133 26.6181 95.0234 26.5436C94.8334 26.4691 94.6251 26.4324 94.3995 26.4324C94.1729 26.4324 93.9635 26.4691 93.7692 26.5436C93.5749 26.6181 93.4077 26.7238 93.2663 26.862C93.1249 27.0001 93.0148 27.1609 92.9338 27.3444C92.8529 27.5279 92.8119 27.7319 92.8119 27.9542C92.8119 28.1733 92.8529 28.3752 92.9338 28.5608C93.0148 28.7464 93.126 28.9083 93.2663 29.0465C93.4066 29.1846 93.5749 29.2915 93.7692 29.3649C93.9635 29.4404 94.174 29.4782 94.4006 29.4782Z" fill="black"/>
<path d="M97.7302 30.1225V25.7881H99.5747C99.9719 25.7881 100.312 25.8485 100.596 25.9705C100.88 26.0924 101.099 26.2684 101.252 26.5004C101.405 26.7325 101.483 27.0077 101.483 27.3304C101.483 27.6488 101.406 27.9219 101.252 28.1507C101.099 28.3795 100.88 28.5576 100.596 28.6828C100.312 28.809 99.9719 28.8716 99.5747 28.8716H98.1986L98.5634 28.5004V30.1225H97.7302ZM98.5624 28.5867L98.1976 28.1906H99.5359C99.9028 28.1906 100.179 28.1151 100.365 27.965C100.55 27.8139 100.643 27.6024 100.643 27.3304C100.643 27.0584 100.55 26.8469 100.365 26.6958C100.179 26.5447 99.9028 26.4702 99.5359 26.4702H98.1976L98.5624 26.0741V28.5867Z" fill="black"/>
<path d="M103.774 29.4101L101.789 25.7879H102.673L104.243 28.7852L103.774 29.4101ZM102.405 29.4403C102.639 29.5191 102.846 29.5396 103.025 29.5018C103.204 29.4651 103.362 29.3388 103.499 29.1241L103.717 28.7959L103.8 28.7096L105.363 25.7869H106.182L104.235 29.2849C104.078 29.5741 103.891 29.7954 103.675 29.9508C103.459 30.1051 103.225 30.1915 102.97 30.2077C102.717 30.2239 102.456 30.1785 102.192 30.0717L102.405 29.4403Z" fill="black"/>
<path d="M106.317 31.0441L106.324 29.4403H111.299V31.0441H110.531V30.1213H107.092V31.0441H106.317ZM109.832 29.75V26.469H108.077L108.045 27.2364C108.036 27.5256 108.018 27.7987 107.991 28.0566C107.963 28.3146 107.926 28.5488 107.879 28.7592C107.831 28.9697 107.766 29.1456 107.68 29.2859C107.595 29.4263 107.49 29.5191 107.366 29.5644L106.469 29.4403C106.631 29.4446 106.765 29.3896 106.87 29.2762C106.974 29.1629 107.056 29.0032 107.116 28.7959C107.175 28.5898 107.22 28.347 107.251 28.0685C107.281 27.79 107.301 27.4857 107.314 27.1554L107.365 25.7869H110.651V29.749H109.832V29.75Z" fill="black"/>
<path d="M114.16 30.1841C113.815 30.1841 113.493 30.1279 113.197 30.0168C112.9 29.9056 112.643 29.748 112.425 29.5462C112.207 29.3444 112.038 29.108 111.919 28.8371C111.799 28.5673 111.74 28.2726 111.74 27.9553C111.74 27.6337 111.799 27.3369 111.919 27.0671C112.038 26.7972 112.207 26.5619 112.425 26.3612C112.643 26.1615 112.899 26.005 113.193 25.8939C113.488 25.7827 113.81 25.7266 114.16 25.7266C114.506 25.7266 114.826 25.7816 115.121 25.8906C115.416 25.9996 115.67 26.155 115.886 26.3547C116.102 26.5555 116.269 26.7908 116.389 27.0638C116.509 27.3358 116.568 27.6337 116.568 27.9553C116.568 28.2769 116.509 28.5737 116.389 28.8436C116.269 29.1145 116.102 29.3508 115.886 29.5527C115.67 29.7545 115.416 29.911 115.121 30.02C114.826 30.129 114.507 30.1841 114.16 30.1841ZM114.16 29.4782C114.387 29.4782 114.594 29.4415 114.784 29.367C114.974 29.2926 115.139 29.1879 115.281 29.0508C115.421 28.9148 115.531 28.754 115.61 28.5684C115.689 28.3827 115.729 28.1787 115.729 27.9553C115.729 27.7319 115.69 27.5279 115.613 27.3423C115.536 27.1566 115.426 26.9958 115.283 26.8598C115.139 26.7238 114.973 26.6181 114.783 26.5436C114.593 26.4691 114.385 26.4324 114.159 26.4324C113.933 26.4324 113.723 26.4691 113.529 26.5436C113.335 26.6181 113.167 26.7238 113.026 26.862C112.885 27.0001 112.775 27.1609 112.694 27.3444C112.613 27.5279 112.572 27.7319 112.572 27.9542C112.572 28.1733 112.613 28.3752 112.694 28.5608C112.775 28.7464 112.886 28.9083 113.026 29.0465C113.166 29.1846 113.335 29.2915 113.529 29.3649C113.724 29.4404 113.935 29.4782 114.16 29.4782Z" fill="black"/>
<path d="M117.49 30.1225V25.7881H119.494C120.003 25.7881 120.398 25.8841 120.679 26.0763C120.961 26.2684 121.102 26.5458 121.102 26.9095C121.102 27.2602 120.969 27.5322 120.702 27.7233C120.435 27.9154 120.077 28.0114 119.629 28.0114L119.751 27.7945C120.251 27.7945 120.637 27.8895 120.91 28.0794C121.183 28.2694 121.32 28.5478 121.32 28.9159C121.32 29.2958 121.177 29.5915 120.892 29.8041C120.606 30.0168 120.181 30.1225 119.617 30.1225H117.49ZM118.317 27.6326H119.431C119.699 27.6326 119.904 27.5808 120.046 27.4783C120.186 27.3747 120.257 27.2225 120.257 27.0196C120.257 26.8177 120.187 26.6645 120.046 26.5609C119.904 26.4573 119.7 26.4065 119.431 26.4065H118.317V27.6326ZM118.317 29.503H119.591C119.886 29.503 120.107 29.4501 120.254 29.3454C120.401 29.2397 120.475 29.0756 120.475 28.8533C120.475 28.6428 120.402 28.4852 120.254 28.3795C120.107 28.2737 119.886 28.2219 119.591 28.2219H118.317V29.503Z" fill="black"/>
<path d="M121.697 30.1225L123.714 25.7881H124.533L126.557 30.1225H125.68L123.951 26.2155H124.284L122.549 30.1225H121.697ZM122.625 29.1188L122.856 28.4874H125.271L125.495 29.1188H122.625Z" fill="black"/>
<path d="M128.075 30.1225H127.243V25.7881H128.075V30.1225ZM130.457 28.2651H128.011V27.5776H130.457V28.2651ZM130.393 25.7881H131.219V30.1225H130.393V25.7881Z" fill="black"/>
<path d="M132.48 30.1225V25.7881H133.306V28.8652L135.714 25.7881H136.489V30.1225H135.663V27.0519L133.262 30.1225H132.48Z" fill="black"/>
<path d="M138.576 29.4403H141.105V30.1213H137.743V25.7869H141.015V26.4679H138.576V29.4403ZM138.512 27.5893H140.741V28.252H138.512V27.5893Z" fill="black"/>
<path d="M69.6124 30.5757H0.440308V0.692139H69.6124V30.5757ZM1.54982 29.4651H68.5007V1.80273H1.54982V29.4651Z" fill="black"/>
<path d="M126.227 9.18613L127.975 6.22562L131.846 12.7197H134.643L129.35 3.94507H126.672L121.374 12.7197L124.14 12.7187L125.073 11.1375L126.227 9.18613Z" fill="black"/>
<path d="M140.764 9.18613L142.513 6.22562L146.384 12.7197H149.181L143.888 3.94507H141.21L135.912 12.7197L138.678 12.7187L139.611 11.1375L140.764 9.18613Z" fill="black"/>
<path d="M90.2226 5.89741C90.2485 5.89741 90.2787 5.89741 90.3046 5.90065C90.7029 5.9136 91.0364 6.0129 91.2933 6.24063C91.5652 6.46836 91.7066 6.78999 91.7056 7.19904V9.42455C91.7056 9.81958 91.5642 10.138 91.2846 10.3765C91.017 10.6107 90.6673 10.7316 90.2248 10.7381H84.77L84.7711 9.5368V9.3544L84.7732 7.40087L82.3535 7.40195V9.5368L82.3513 12.7186H90.8421C91.8426 12.7186 92.6424 12.4272 93.2382 11.8335C93.8296 11.2507 94.1243 10.5772 94.1243 9.81958V6.84396C94.1243 6.49858 94.0681 6.17695 93.9537 5.87583C93.8091 5.48728 93.5706 5.13543 93.2392 4.8138C92.6597 4.23745 91.8588 3.94604 90.8432 3.94604H81.3281L83.2633 5.90065" fill="black"/>
<path d="M124.736 10.6636V9.15479H127.966L128.866 10.6636H124.736Z" fill="black"/>
<path d="M95.8414 3.94507H98.2817L98.2828 9.68908L104.595 3.94507H107.028L107.031 12.7208H104.597L104.596 6.99732L98.2839 12.7208H95.8436L95.8414 3.94507Z" fill="black"/>
<path d="M119.345 8.58284C119.145 8.36806 118.914 8.21373 118.646 8.11011C118.717 8.01945 118.772 7.96225 118.821 7.94282C119.286 7.48304 119.517 6.93368 119.517 6.28718C119.517 5.6504 119.286 5.09996 118.814 4.64125C118.346 4.175 117.743 3.94727 116.998 3.94727H108.75L110.701 5.89863H111.166H116.112C116.823 5.89863 116.997 6.40051 116.997 6.62932C116.997 6.86029 116.915 7.06212 116.743 7.23588C116.568 7.40641 116.356 7.40857 116.095 7.40857H112.603V7.40965H110.916L110.915 7.87267H110.92L110.919 9.12033H113.329H116.694C116.954 9.12033 117.171 9.20452 117.341 9.36857C117.516 9.53694 117.598 9.73769 117.598 9.96866C117.598 10.2029 117.516 10.4047 117.341 10.5785C117.17 10.7468 116.946 10.8299 116.674 10.8364H111.158H110.667C109.991 11.5185 108.746 12.7209 108.746 12.7209H117.463C118.237 12.7144 118.859 12.4759 119.343 11.9967C119.831 11.5034 120.07 10.9336 120.07 10.273C120.072 9.61897 119.833 9.05558 119.345 8.58284Z" fill="black"/>
<path d="M173.213 3.94385H163.977L162.024 5.89845H166.235L166.234 12.7218H168.653L168.654 5.89845H171.259L173.213 3.94385Z" fill="black"/>
<path d="M152.884 10.7684H157.912C158.209 10.7684 158.815 10.7489 158.815 10.0096C158.815 9.26165 158.243 9.26921 157.875 9.26921H152.891V9.27245H150.451L150.449 3.62988H152.869V7.32216H158.103C159.267 7.32216 161.266 7.34698 161.266 10.0841C161.266 12.3689 159.336 12.7208 158.104 12.7208H150.453L152.404 10.7694L152.884 10.7684Z" fill="black"/>
<path d="M152.869 7.32104H150.453V12.7197H152.869V7.32104Z" fill="black"/>
</svg>
