<svg width="24" height="24" viewBox="0 0 24 24" fill="none" xmlns="http://www.w3.org/2000/svg">
<path d="M2.90156 8.87422L11.3016 17.2992C11.4016 17.3992 11.5099 17.4699 11.6266 17.5112C11.7432 17.5532 11.8682 17.5742 12.0016 17.5742C12.1349 17.5742 12.2599 17.5532 12.3766 17.5112C12.4932 17.4699 12.6016 17.3992 12.7016 17.2992L21.1266 8.87422C21.3599 8.64089 21.4766 8.34922 21.4766 7.99922C21.4766 7.64922 21.3516 7.34922 21.1016 7.09922C20.8516 6.84922 20.5599 6.72422 20.2266 6.72422C19.8932 6.72422 19.6016 6.84922 19.3516 7.09922L12.0016 14.4492L4.65156 7.09922C4.41823 6.86589 4.1309 6.74922 3.78956 6.74922C3.44756 6.74922 3.15156 6.87422 2.90156 7.12422C2.65156 7.37422 2.52656 7.66589 2.52656 7.99922C2.52656 8.33255 2.65156 8.62422 2.90156 8.87422Z" fill="#222223"/>
</svg>
