<svg width="18" height="19" viewBox="0 0 18 19" fill="none" xmlns="http://www.w3.org/2000/svg">
<path d="M12.975 14.0294C12.825 13.8794 12.753 13.6981 12.759 13.4856C12.7655 13.2731 12.8437 13.0919 12.9937 12.9419L15.1125 10.8231H1.75C1.5375 10.8231 1.35925 10.7511 1.21525 10.6071C1.07175 10.4636 1 10.2855 1 10.073C1 9.86053 1.07175 9.68238 1.21525 9.53838C1.35925 9.39488 1.5375 9.32313 1.75 9.32313H15.1125L12.975 7.18563C12.825 7.03563 12.75 6.85738 12.75 6.65088C12.75 6.44488 12.825 6.26688 12.975 6.11688C13.125 5.96688 13.3032 5.89188 13.5097 5.89188C13.7157 5.89188 13.8938 5.96688 14.0437 6.11688L17.475 9.54813C17.55 9.62313 17.6032 9.70438 17.6347 9.79188C17.6657 9.87938 17.6813 9.97313 17.6813 10.0731C17.6813 10.1731 17.6657 10.2669 17.6347 10.3544C17.6032 10.4419 17.55 10.5231 17.475 10.5981L14.025 14.0481C13.8875 14.1856 13.7157 14.2544 13.5097 14.2544C13.3032 14.2544 13.125 14.1794 12.975 14.0294Z" fill="black"/>
</svg>
