<svg width="30" height="31" viewBox="0 0 30 31" fill="none" xmlns="http://www.w3.org/2000/svg">
<path d="M8.03947 6.70894H26.2242L23.7502 15.3682H9.37169M24.9872 20.3164H10.1427L7.66864 4.23486H3.95752M11.3798 25.2645C11.3798 25.9478 10.8259 26.5016 10.1427 26.5016C9.45953 26.5016 8.90568 25.9478 8.90568 25.2645C8.90568 24.5813 9.45953 24.0275 10.1427 24.0275C10.8259 24.0275 11.3798 24.5813 11.3798 25.2645ZM24.9872 25.2645C24.9872 25.9478 24.4334 26.5016 23.7502 26.5016C23.0669 26.5016 22.5131 25.9478 22.5131 25.2645C22.5131 24.5813 23.0669 24.0275 23.7502 24.0275C24.4334 24.0275 24.9872 24.5813 24.9872 25.2645Z" stroke="url(#paint0_linear_386_2981)" stroke-width="2.47408" stroke-linecap="round" stroke-linejoin="round"/>
<defs>
<linearGradient id="paint0_linear_386_2981" x1="25.9933" y1="15.3655" x2="3.95752" y2="15.3655" gradientUnits="userSpaceOnUse">
<stop stop-color="#F7931E"/>
<stop offset="1" stop-color="#FFE500"/>
</linearGradient>
</defs>
</svg>
