<svg width="30" height="30" viewBox="0 0 30 30" fill="none" xmlns="http://www.w3.org/2000/svg">
<path d="M1 26.5556C1 27.3533 1.57117 28 2.27574 28H6.57018C7.27475 28 7.84592 27.3533 7.84592 26.5556V10.6667C7.84592 9.86895 7.27475 9.22222 6.57018 9.22222H2.27574C1.57117 9.22222 1 9.86895 1 10.6667V26.5556ZM11.5771 26.5556C11.5771 27.3533 12.1482 28 12.8528 28H17.1472C17.8518 28 18.4229 27.3533 18.4229 26.5556V3.44444C18.4229 2.6467 17.8518 2 17.1472 2H12.8528C12.1482 2 11.5771 2.6467 11.5771 3.44444V26.5556ZM22.1541 26.5556C22.1541 27.3533 22.7252 28 23.4299 28H27.7243C28.4288 28 29 27.3533 29 26.5556V16.4444C29 15.6467 28.4288 15 27.7243 15H23.4299C22.7252 15 22.1541 15.6467 22.1541 16.4444V26.5556Z" fill="url(#paint0_linear_682_1779)"/>
<defs>
<linearGradient id="paint0_linear_682_1779" x1="28.7095" y1="14.9968" x2="1" y2="14.9968" gradientUnits="userSpaceOnUse">
<stop stop-color="#F7931E"/>
<stop offset="1" stop-color="#FFE500"/>
</linearGradient>
</defs>
</svg>
