<svg width="32" height="33" viewBox="0 0 32 33" fill="none" xmlns="http://www.w3.org/2000/svg">
<mask id="mask0_2_18" style="mask-type:luminance" maskUnits="userSpaceOnUse" x="0" y="0" width="32" height="33">
<path d="M0.5 1.146H31.5V32.146H0.5V1.146Z" fill="white" stroke="white"/>
</mask>
<g mask="url(#mask0_2_18)">
<path d="M30.4725 15.2526L30.6168 15.5026H30.9055H30.9729C31.2641 15.5026 31.5001 15.7384 31.5003 16.03C31.5002 19.24 28.8879 21.8522 25.6779 21.8522C22.4678 21.8522 19.8555 19.2399 19.8555 16.0297C19.8555 15.7384 20.0913 15.5026 20.3826 15.5026H20.4501H20.7388L20.8831 15.2526L24.5992 8.81607L25.0322 8.06607H24.1662H17.0274H16.5274V8.56607V27.4192V27.9192H17.0274H20.3826C21.4028 27.9192 22.2336 28.7499 22.2336 29.7701C22.2336 30.7903 21.4028 31.6211 20.3826 31.6211H11.6179C10.5978 31.6211 9.76697 30.7903 9.76697 29.7701C9.76697 28.7499 10.5977 27.9192 11.6179 27.9192H14.9732H15.4732V27.4192V8.56607V8.06607H14.9732H7.83436H6.96835L7.40134 8.81606L11.1174 15.2526L11.2617 15.5026H11.5504H11.6178C11.9089 15.5026 12.1449 15.7385 12.1449 16.0297C12.1449 19.2399 9.53259 21.8522 6.32246 21.8522C3.11233 21.8522 0.5 19.2399 0.5 16.0297C0.5 15.7385 0.735955 15.5026 1.02711 15.5026H1.09462H1.3833L1.52763 15.2526L5.24371 8.81607L5.67672 8.06607H4.8107H2.85727C2.56614 8.06607 2.33017 7.83015 2.33017 7.53896V6.07814C2.33017 5.78695 2.56614 5.55103 2.85727 5.55103H14.9729H15.4729V5.05103V2.19801C15.4729 1.90682 15.7089 1.6709 16 1.6709C16.2912 1.6709 16.5271 1.90676 16.5271 2.19801V5.05103V5.55103H17.0271H29.1427C29.4339 5.55103 29.6698 5.78689 29.6698 6.07814V7.53896C29.6698 7.83021 29.4339 8.06607 29.1427 8.06607H27.1894H26.3234L26.7564 8.81607L30.4725 15.2526ZM3.03354 14.7526L2.60052 15.5026H3.46655H9.17837H10.0444L9.61138 14.7526L6.75547 9.8061L6.32246 9.05611L5.88945 9.8061L3.03354 14.7526ZM26.1107 9.8061L25.6777 9.05611L25.2447 9.8061L22.3888 14.7526L21.9558 15.5026H22.8218H28.5336H29.3996L28.9666 14.7526L26.1107 9.8061Z" fill="url(#paint0_linear_2_18)" stroke="url(#paint1_linear_2_18)"/>
</g>
<defs>
<linearGradient id="paint0_linear_2_18" x1="31.6683" y1="16.6422" x2="-1.57928e-07" y2="16.6422" gradientUnits="userSpaceOnUse">
<stop stop-color="#F7931E"/>
<stop offset="1" stop-color="#FFE500"/>
</linearGradient>
<linearGradient id="paint1_linear_2_18" x1="31.6683" y1="16.6422" x2="-1.57928e-07" y2="16.6422" gradientUnits="userSpaceOnUse">
<stop stop-color="#F7931E"/>
<stop offset="1" stop-color="#FFE500"/>
</linearGradient>
</defs>
</svg>
