<svg width="96" height="95" viewBox="0 0 96 95" fill="none" xmlns="http://www.w3.org/2000/svg">
<path fill-rule="evenodd" clip-rule="evenodd" d="M51.2972 6.61244C55.0207 6.61244 58.2199 9.17623 58.9204 12.7219L59.2318 14.2986C60.4562 20.4958 67.0678 24.1967 73.2158 22.1262L74.7806 21.5992C78.298 20.4146 82.1877 21.8187 84.0492 24.945L86.8614 29.6672C88.7233 32.7936 88.0325 36.7614 85.2156 39.1224L83.9629 40.1724C79.039 44.2991 79.039 51.7009 83.9629 55.8274L85.2156 56.8773C88.0325 59.2384 88.7233 63.2062 86.8614 66.3327L84.0496 71.0548C82.1877 74.1813 78.298 75.5852 74.7802 74.4006L73.2161 73.8735C67.0678 71.8027 60.4562 75.5035 59.2318 81.7012L58.9204 83.2779C58.2199 86.8236 55.0207 89.3875 51.2972 89.3875H45.6728C41.9494 89.3875 38.7502 86.8236 38.0497 83.2783L37.738 81.7005C36.5134 75.5035 29.9017 71.8027 23.7536 73.8735L22.1898 74.4002C18.6723 75.5852 14.7825 74.1809 12.9206 71.0544L10.1086 66.3327C8.24677 63.2062 8.93737 59.2384 11.7543 56.8773L13.0072 55.8274C17.9308 51.7005 17.9308 44.2991 13.0072 40.1726L11.7543 39.1224C8.93737 36.7614 8.24677 32.7937 10.1086 29.6673L12.9207 24.9451C14.7826 21.8187 18.6722 20.4146 22.1897 21.5993L23.754 22.1261C29.9019 24.1967 36.5134 20.4961 37.738 14.299L38.0496 12.7216C38.7502 9.17609 41.949 6.61244 45.6728 6.61244H51.2972ZM48.485 59.825C55.0156 59.825 60.31 54.5306 60.31 48C60.31 41.469 55.0156 36.1749 48.485 36.1749C41.954 36.1749 36.6599 41.469 36.6599 48C36.6599 54.5306 41.954 59.825 48.485 59.825Z" fill="url(#paint0_linear_207_3078)"/>
<defs>
<linearGradient id="paint0_linear_207_3078" x1="87.0839" y1="47.9897" x2="9.06836" y2="47.9897" gradientUnits="userSpaceOnUse">
<stop stop-color="#F7931E"/>
<stop offset="1" stop-color="#FFE500"/>
</linearGradient>
</defs>
</svg>
