<svg width="16" height="16" viewBox="0 0 16 16" fill="none" xmlns="http://www.w3.org/2000/svg">
<circle cx="7.71082" cy="7.71082" r="7.71082" fill="#F7931E"/>
<path d="M6.77904 9.01732L6.39853 3.40791H8.68158L8.30107 9.01732H6.77904ZM7.54006 12.0982C7.19637 12.0982 6.91406 11.9877 6.69312 11.7668C6.47218 11.5458 6.36171 11.284 6.36171 10.9812C6.36171 10.6703 6.47218 10.4125 6.69312 10.2079C6.91406 9.99518 7.19637 9.8888 7.54006 9.8888C7.89192 9.8888 8.17423 9.99518 8.38699 10.2079C8.60793 10.4125 8.7184 10.6703 8.7184 10.9812C8.7184 11.284 8.60793 11.5458 8.38699 11.7668C8.17423 11.9877 7.89192 12.0982 7.54006 12.0982Z" fill="white"/>
</svg>
