<svg width="95" height="96" viewBox="0 0 95 96" fill="none" xmlns="http://www.w3.org/2000/svg">
<path d="M61.7016 57.1704L59.8986 58.9627C59.8986 58.9627 55.6133 63.2238 43.9164 51.5931C32.2196 39.9627 36.5048 35.7018 36.5048 35.7018L37.6401 34.5729C40.4371 31.7921 40.7007 27.3273 38.2604 24.0679L33.2691 17.4005C30.249 13.3663 24.4132 12.8334 20.9516 16.2754L14.7386 22.4531C13.0222 24.1598 11.8719 26.3721 12.0114 28.8264C12.3683 35.1051 15.2091 48.6144 31.0608 64.3761C47.8708 81.0906 63.6436 81.7548 70.0937 81.1535C72.1338 80.9635 73.9079 79.9244 75.3377 78.5026L80.9609 72.9118C84.7565 69.1376 83.6862 62.6673 78.8297 60.0275L71.2673 55.9164C68.0785 54.183 64.1938 54.692 61.7016 57.1704Z" fill="url(#paint0_linear_207_3063)"/>
<defs>
<linearGradient id="paint0_linear_207_3063" x1="82.511" y1="47.6374" x2="12" y2="47.6374" gradientUnits="userSpaceOnUse">
<stop stop-color="#F7931E"/>
<stop offset="1" stop-color="#FFE500"/>
</linearGradient>
</defs>
</svg>
