<svg width="32" height="33" viewBox="0 0 32 33" fill="none" xmlns="http://www.w3.org/2000/svg">
<g clip-path="url(#clip0_556_1717)">
<path d="M30.9729 15.0026H30.9055L27.1894 8.56607H29.1427C29.7101 8.56607 30.1698 8.10634 30.1698 7.53896V6.07814C30.1698 5.51077 29.7101 5.05103 29.1427 5.05103H17.0271V2.19801C17.0271 1.63063 16.5674 1.1709 16 1.1709C15.4328 1.1709 14.9729 1.63063 14.9729 2.19801V5.05103H2.85727C2.29004 5.05103 1.83017 5.51077 1.83017 6.07814V7.53896C1.83017 8.10634 2.29004 8.56607 2.85727 8.56607H4.8107L1.09462 15.0026H1.02711C0.45987 15.0026 0 15.4623 0 16.0297C0 19.516 2.83618 22.3522 6.32246 22.3522C9.80874 22.3522 12.6449 19.516 12.6449 16.0297C12.6449 15.4623 12.185 15.0026 11.6178 15.0026H11.5504L7.83436 8.56607H14.9732V27.4192H11.6179C10.3216 27.4192 9.26697 28.4737 9.26697 29.7701C9.26697 31.0664 10.3216 32.1211 11.6179 32.1211H20.3826C21.6789 32.1211 22.7336 31.0664 22.7336 29.7701C22.7336 28.4737 21.6789 27.4192 20.3826 27.4192H17.0274V8.56607H24.1662L20.4501 15.0026H20.3826C19.8152 15.0026 19.3555 15.4623 19.3555 16.0297C19.3555 19.516 22.1917 22.3522 25.6779 22.3522C29.1641 22.3522 32.0003 19.516 32.0003 16.0297C32 15.4623 31.5403 15.0026 30.9729 15.0026ZM3.46655 15.0026L6.32246 10.0561L9.17837 15.0026H3.46655ZM25.6777 10.0561L28.5336 15.0026H22.8218L25.6777 10.0561Z" fill="#D7D7D7"/>
</g>
<defs>
<clipPath id="clip0_556_1717">
<rect width="32" height="32" fill="white" transform="translate(0 0.645996)"/>
</clipPath>
</defs>
</svg>
