<svg width="95" height="96" viewBox="0 0 95 96" fill="none" xmlns="http://www.w3.org/2000/svg">
<g clip-path="url(#clip0_207_3068)">
<path d="M47.5 22.1536C54.7246 22.1536 61.2703 25.0443 66.0032 29.7253C70.7361 34.3997 73.6694 40.8646 73.6694 48C73.6694 55.1354 70.7427 61.6003 66.0032 66.2747C61.2703 70.9492 54.7246 73.8464 47.5 73.8464C40.2754 73.8464 33.7297 70.9557 28.9968 66.2747C24.2639 61.6003 21.3306 55.1354 21.3306 48C21.3306 40.8646 24.2573 34.3997 28.9968 29.7253C33.7297 25.0508 40.2754 22.1536 47.5 22.1536ZM47.5 8C58.6863 8 68.8113 12.4792 76.1348 19.7187C83.4648 26.9583 88 36.9583 88 48C88 59.0482 83.4648 69.0482 76.1348 76.2812C68.8047 83.5208 58.6797 88 47.5 88C36.3137 88 26.1887 83.5208 18.8652 76.2812C11.5352 69.0482 7 59.0482 7 48C7 36.9518 11.5352 26.9518 18.8652 19.7187C26.1887 12.4792 36.3137 8 47.5 8ZM68.6135 27.1471C63.2082 21.8086 55.7463 18.5078 47.5 18.5078C39.2537 18.5078 31.7917 21.8086 26.3865 27.1471C20.9812 32.4857 17.6392 39.8555 17.6392 48C17.6392 56.1445 20.9812 63.5143 26.3865 68.8529C31.7917 74.1914 39.2537 77.4922 47.5 77.4922C55.7463 77.4922 63.2082 74.1914 68.6135 68.8529C74.0188 63.5143 77.3608 56.1445 77.3608 48C77.3608 39.8555 74.0188 32.4857 68.6135 27.1471ZM50.1433 44.9596C49.4709 44.2956 48.5415 43.8854 47.5 43.8854C46.4651 43.8854 45.529 44.2956 44.8567 44.9596L44.8501 44.9661C44.1777 45.6302 43.7624 46.5482 43.7624 47.5768C43.7624 48.599 44.1777 49.5234 44.8501 50.1875L44.8567 50.194C45.529 50.8581 46.4585 51.2682 47.5 51.2682C48.5349 51.2682 49.4709 50.8581 50.1433 50.194L50.1499 50.1875C50.8223 49.5234 51.2375 48.599 51.2375 47.5768C51.231 46.5482 50.8157 45.6302 50.1433 44.9596ZM49.8862 41.0664C50.8552 41.418 51.7319 41.9714 52.4504 42.681C52.6943 42.9219 52.925 43.1823 53.1294 43.4622L53.1953 43.4427L67.0513 39.7773C65.9768 37.2839 64.4277 35.0378 62.5161 33.1562C59.2004 29.8815 54.7905 27.681 49.8796 27.1406V40.8906C49.8928 40.9492 49.8928 41.0078 49.8862 41.0664ZM54.4873 48.1237C54.395 49.25 54.0325 50.3047 53.4524 51.2227C53.4853 51.2617 53.5117 51.3073 53.5381 51.3529L61.4944 63.8073C61.8503 63.5013 62.1931 63.1823 62.5293 62.8503C66.3723 59.0547 68.7519 53.8008 68.7519 48.0065C68.7519 46.7891 68.6465 45.5977 68.4421 44.4323L54.4873 48.1237ZM49.5632 54.1914C48.9106 54.3932 48.2185 54.4974 47.5 54.4974C46.854 54.4974 46.2278 54.4128 45.6279 54.25L37.8628 66.7174C40.7566 68.1758 44.0327 68.9961 47.5 68.9961C51.0991 68.9961 54.4873 68.1107 57.4602 66.5547L49.5632 54.1914ZM41.6531 51.3854C41.0466 50.487 40.6511 49.4388 40.5325 48.319H40.5259L26.6238 44.0221C26.3733 45.3112 26.2415 46.6393 26.2415 48C26.2415 53.7943 28.6211 59.0482 32.4641 62.8437C32.8794 63.2539 33.3145 63.651 33.7693 64.0286L41.5476 51.5352C41.5872 51.4896 41.6201 51.4375 41.6531 51.3854ZM41.7519 43.625C41.9893 43.293 42.2529 42.974 42.5496 42.6875C43.2417 42.0104 44.0723 41.4701 44.9951 41.1185C44.9885 41.0469 44.9819 40.9687 44.9819 40.8971V27.1602C40.1172 27.7266 35.7534 29.9141 32.4707 33.1628C30.658 34.9531 29.1682 37.069 28.1003 39.4128L41.7519 43.625Z" fill="url(#paint0_linear_207_3068)"/>
</g>
<defs>
<linearGradient id="paint0_linear_207_3068" x1="87.1597" y1="47.9901" x2="7" y2="47.9901" gradientUnits="userSpaceOnUse">
<stop stop-color="#F7931E"/>
<stop offset="1" stop-color="#FFE500"/>
</linearGradient>
<clipPath id="clip0_207_3068">
<rect width="81" height="80" fill="white" transform="translate(7 8)"/>
</clipPath>
</defs>
</svg>
