<svg width="173" height="32" viewBox="0 0 173 32" fill="none" xmlns="http://www.w3.org/2000/svg">
<path d="M25.0057 9.93636C25.0661 9.93636 25.1363 9.93636 25.1967 9.94391C26.1282 9.97521 26.9096 10.2073 27.5097 10.7404C28.1454 11.2736 28.4756 12.027 28.4756 12.9832L28.4746 18.1908C28.4746 19.1169 28.1432 19.8616 27.4902 20.4185C26.8632 20.9668 26.0451 21.2495 25.0089 21.2647H12.2473L12.2506 18.4542V18.0278L12.2549 13.457L6.5929 13.4592L6.59398 18.4531L6.58858 25.8981H26.4552C28.7973 25.8981 30.6688 25.216 32.0621 23.828C33.4469 22.4638 34.1344 20.8869 34.1355 19.1158L34.1365 12.1522C34.1365 11.3448 34.0059 10.5915 33.7361 9.88563C33.3961 8.97578 32.8403 8.15228 32.0654 7.40001C30.7076 6.05089 28.8361 5.36877 26.4595 5.36877H4.1947L8.72235 9.94283" fill="black"/>
<path d="M45.4865 17.6317L49.5781 10.7048L58.6334 25.8992H65.1793L52.7955 5.36877H46.5269L34.1355 25.8992L40.6048 25.897L42.7893 22.1982L45.4865 17.6317Z" fill="black"/>
<path d="M42.0004 21.0887V17.5573H49.5565L51.6611 21.0887H42.0004Z" fill="black"/>
<path d="M81.9116 22.6915V18.3571H85.8877V22.6915H85.0621V18.8406L85.2542 19.0392H82.5452L82.7373 18.8406V22.6915H81.9116Z" fill="black"/>
<path d="M87.1429 22.6915V18.3571H88.9875C89.3846 18.3571 89.7246 18.4186 90.0085 18.5395C90.2923 18.6614 90.5114 18.8373 90.6647 19.0694C90.8179 19.3004 90.8946 19.5767 90.8946 19.8994C90.8946 20.2178 90.8179 20.4908 90.6647 20.7196C90.5114 20.9484 90.2923 21.1265 90.0085 21.2517C89.7246 21.378 89.3846 21.4406 88.9875 21.4406H87.6103L87.9751 21.0693V22.6915H87.1429ZM87.9751 21.1568L87.6103 20.7607H88.9486C89.3156 20.7607 89.5919 20.6851 89.7775 20.5351C89.9631 20.384 90.056 20.1724 90.056 19.9005C90.056 19.6285 89.9631 19.4169 89.7775 19.2658C89.5919 19.1147 89.3156 19.0403 88.9486 19.0403H87.6103L87.9751 18.6441V21.1568Z" fill="black"/>
<path d="M93.8281 22.7541C93.4827 22.7541 93.1611 22.698 92.8643 22.5868C92.5675 22.4757 92.3106 22.3181 92.0926 22.1163C91.8746 21.9144 91.7062 21.6781 91.5864 21.4072C91.4666 21.1373 91.4072 20.8427 91.4072 20.5254C91.4072 20.2037 91.4666 19.9069 91.5864 19.6371C91.7062 19.3673 91.8746 19.132 92.0926 18.9313C92.3106 18.7316 92.5664 18.5751 92.861 18.4639C93.1557 18.3528 93.4773 18.2966 93.8281 18.2966C94.1735 18.2966 94.494 18.3517 94.7887 18.4607C95.0833 18.5697 95.338 18.7251 95.5539 18.9248C95.7697 19.1255 95.937 19.3608 96.0568 19.6339C96.1766 19.9059 96.236 20.2037 96.236 20.5254C96.236 20.847 96.1766 21.1438 96.0568 21.4136C95.937 21.6845 95.7697 21.9209 95.5539 22.1227C95.338 22.3246 95.0833 22.4811 94.7887 22.5901C94.494 22.6991 94.1735 22.7541 93.8281 22.7541ZM93.8281 22.0483C94.0547 22.0483 94.262 22.0116 94.4519 21.9371C94.6419 21.8626 94.807 21.7579 94.9484 21.6209C95.0887 21.4849 95.1988 21.3241 95.2776 21.1384C95.3564 20.9528 95.3963 20.7488 95.3963 20.5254C95.3963 20.302 95.3575 20.098 95.2808 19.9123C95.2042 19.7267 95.0941 19.5659 94.9506 19.4299C94.807 19.2939 94.6408 19.1881 94.4509 19.1137C94.2609 19.0392 94.0526 19.0025 93.827 19.0025C93.6004 19.0025 93.391 19.0392 93.1967 19.1137C93.0024 19.1881 92.8351 19.2939 92.6938 19.4331C92.5524 19.5724 92.4423 19.7321 92.3613 19.9156C92.2804 20.0991 92.2394 20.302 92.2394 20.5254C92.2394 20.7445 92.2804 20.9463 92.3613 21.1319C92.4423 21.3176 92.5534 21.4795 92.6938 21.6176C92.8341 21.7558 93.0024 21.8626 93.1967 21.936C93.392 22.0105 93.6014 22.0483 93.8281 22.0483Z" fill="black"/>
<path d="M97.1577 22.6915V18.3571H97.8431L99.802 21.5205H99.4437L101.378 18.3571H102.057L102.07 22.6915H101.269V19.5529H101.435L99.802 22.2026H99.4242L97.7589 19.5529H97.9575V22.6915H97.1577Z" fill="black"/>
<path d="M105.393 19.8249C105.93 19.8249 106.345 19.9404 106.635 20.1714C106.925 20.4023 107.071 20.7499 107.071 21.2118C107.071 21.6986 106.911 22.0677 106.591 22.317C106.27 22.5663 105.827 22.6915 105.259 22.6915H103.325V18.3571H104.15V19.8249H105.393ZM105.219 22.0731C105.54 22.0731 105.788 22.0008 105.965 21.8561C106.142 21.7115 106.23 21.501 106.23 21.2247C106.23 20.9528 106.143 20.7542 105.968 20.6301C105.793 20.5059 105.543 20.4444 105.219 20.4444H104.149V22.0731H105.219ZM107.71 22.6915V18.3571H108.536V22.6915H107.71Z" fill="black"/>
<path d="M112.455 22.0105L112.269 22.2091V18.3582H113.088V22.2091L112.89 22.0105H114.932L114.726 22.2091V18.3582H115.552V22.6926H109.79V18.3582H110.615V22.2091L110.423 22.0105H112.455Z" fill="black"/>
<path d="M116.738 22.7477C116.666 22.7477 116.592 22.7433 116.517 22.7347C116.443 22.7261 116.363 22.712 116.277 22.6915L116.335 21.9857C116.394 22.0019 116.459 22.0105 116.527 22.0105C116.71 22.0105 116.855 21.9403 116.958 21.8C117.063 21.6597 117.139 21.4514 117.186 21.1751C117.233 20.8988 117.265 20.5556 117.282 20.1476L117.346 18.3582H120.643V22.6926H119.818V18.8417L120.016 19.0403H117.883L118.063 18.8363L118.017 20.1239C118 20.5491 117.968 20.9247 117.921 21.2507C117.874 21.5766 117.804 21.8518 117.71 22.0774C117.616 22.3019 117.49 22.4703 117.332 22.5825C117.177 22.6915 116.978 22.7477 116.738 22.7477Z" fill="black"/>
<path d="M122.738 22.0105H125.267V22.6915H121.905V18.3571H125.177V19.0381H122.738V22.0105ZM122.675 20.1595H124.903V20.8222H122.675V20.1595Z" fill="black"/>
<path d="M127.028 22.6915H126.196V18.3571H127.028V22.6915ZM129.41 20.834H126.965V20.1465H129.41V20.834ZM129.347 18.3581H130.172V22.6926H129.347V18.3581Z" fill="black"/>
<path d="M132.266 22.6915H131.434V18.3571H132.266V22.6915ZM134.648 20.834H132.203V20.1465H134.648V20.834ZM134.585 18.3581H135.41V22.6926H134.585V18.3581Z" fill="black"/>
<path d="M138.753 22.7541C138.407 22.7541 138.086 22.698 137.789 22.5868C137.492 22.4757 137.235 22.3181 137.017 22.1163C136.799 21.9144 136.631 21.6781 136.511 21.4072C136.391 21.1373 136.332 20.8427 136.332 20.5254C136.332 20.2037 136.391 19.9069 136.511 19.6371C136.631 19.3673 136.799 19.132 137.017 18.9313C137.235 18.7316 137.491 18.5751 137.786 18.4639C138.08 18.3528 138.402 18.2966 138.753 18.2966C139.098 18.2966 139.419 18.3517 139.713 18.4607C140.008 18.5697 140.263 18.7251 140.478 18.9248C140.694 19.1255 140.862 19.3608 140.981 19.6339C141.101 19.9059 141.161 20.2037 141.161 20.5254C141.161 20.847 141.101 21.1438 140.981 21.4136C140.862 21.6845 140.694 21.9209 140.478 22.1227C140.263 22.3246 140.008 22.4811 139.713 22.5901C139.419 22.6991 139.099 22.7541 138.753 22.7541ZM138.753 22.0483C138.979 22.0483 139.187 22.0116 139.376 21.9371C139.566 21.8626 139.732 21.7579 139.873 21.6209C140.013 21.4849 140.123 21.3241 140.202 21.1384C140.281 20.9528 140.321 20.7488 140.321 20.5254C140.321 20.302 140.282 20.098 140.205 19.9123C140.129 19.7267 140.019 19.5659 139.875 19.4299C139.732 19.2939 139.565 19.1881 139.375 19.1137C139.185 19.0392 138.977 19.0025 138.752 19.0025C138.525 19.0025 138.316 19.0392 138.121 19.1137C137.927 19.1881 137.76 19.2939 137.618 19.4331C137.477 19.5724 137.367 19.7321 137.286 19.9156C137.205 20.0991 137.164 20.302 137.164 20.5254C137.164 20.7445 137.205 20.9463 137.286 21.1319C137.367 21.3176 137.478 21.4795 137.618 21.6176C137.759 21.7558 137.927 21.8626 138.121 21.936C138.317 22.0105 138.527 22.0483 138.753 22.0483Z" fill="black"/>
<path d="M142.915 22.0105H145.443V22.6915H142.081V18.3571H145.354V19.0381H142.915V22.0105ZM142.851 20.1595H145.08V20.8222H142.851V20.1595Z" fill="black"/>
<path d="M83.9925 30.1839C83.6471 30.1839 83.3255 30.1278 83.0287 30.0166C82.7319 29.9055 82.475 29.7479 82.257 29.5461C82.039 29.3442 81.8706 29.1079 81.7508 28.837C81.631 28.5671 81.5717 28.2725 81.5717 27.9552C81.5717 27.6336 81.631 27.3368 81.7508 27.0669C81.8706 26.7971 82.039 26.5618 82.257 26.3611C82.475 26.1614 82.7308 26.0049 83.0255 25.8937C83.3201 25.7826 83.6417 25.7264 83.9925 25.7264C84.3379 25.7264 84.6584 25.7815 84.9531 25.8905C85.2477 25.9995 85.5025 26.1549 85.7183 26.3546C85.9342 26.5553 86.1015 26.7906 86.2213 27.0637C86.3411 27.3357 86.4004 27.6336 86.4004 27.9552C86.4004 28.2768 86.3411 28.5736 86.2213 28.8434C86.1015 29.1144 85.9342 29.3507 85.7183 29.5525C85.5025 29.7544 85.2477 29.9109 84.9531 30.0199C84.6584 30.1289 84.339 30.1839 83.9925 30.1839ZM83.9925 29.4781C84.2192 29.4781 84.4264 29.4414 84.6164 29.3669C84.8063 29.2924 84.9714 29.1877 85.1128 29.0507C85.2542 28.9147 85.3632 28.7539 85.4431 28.5682C85.5219 28.3826 85.5618 28.1786 85.5618 27.9552C85.5618 27.7318 85.523 27.5278 85.4463 27.3421C85.3697 27.1565 85.2596 26.9957 85.1161 26.8597C84.9725 26.7237 84.8063 26.6179 84.6164 26.5435C84.4264 26.469 84.2181 26.4323 83.9925 26.4323C83.7659 26.4323 83.5565 26.469 83.3622 26.5435C83.1679 26.6179 83.0006 26.7237 82.8593 26.8619C82.7179 27 82.6078 27.1608 82.5268 27.3443C82.4459 27.5278 82.4049 27.7318 82.4049 27.9541C82.4049 28.1732 82.4459 28.375 82.5268 28.5607C82.6078 28.7463 82.7189 28.9082 82.8593 29.0464C82.9996 29.1845 83.1679 29.2914 83.3622 29.3648C83.5565 29.4403 83.7669 29.4781 83.9925 29.4781Z" fill="black"/>
<path d="M87.322 30.1225V25.7881H90.8179V26.4573H88.1477V27.516H89.4731C90.0105 27.516 90.4196 27.624 90.6991 27.8377C90.9787 28.0524 91.119 28.3665 91.119 28.7788C91.119 29.2041 90.9636 29.5343 90.6549 29.7696C90.3451 30.0049 89.9091 30.1225 89.3457 30.1225H87.322ZM88.1488 29.503H89.3014C89.622 29.503 89.8648 29.4437 90.0311 29.3239C90.1973 29.2041 90.2804 29.0314 90.2804 28.8036C90.2804 28.3579 89.9533 28.1345 89.3004 28.1345H88.1477V29.503H88.1488Z" fill="black"/>
<path d="M94.1098 30.1839C93.7645 30.1839 93.4428 30.1278 93.146 30.0166C92.8492 29.9055 92.5923 29.7479 92.3743 29.5461C92.1563 29.3442 91.9879 29.1079 91.8681 28.837C91.7483 28.5671 91.689 28.2725 91.689 27.9552C91.689 27.6336 91.7483 27.3368 91.8681 27.0669C91.9879 26.7971 92.1563 26.5618 92.3743 26.3611C92.5923 26.1614 92.8481 26.0049 93.1428 25.8937C93.4374 25.7826 93.7591 25.7264 94.1098 25.7264C94.4552 25.7264 94.7758 25.7815 95.0704 25.8905C95.3651 25.9995 95.6198 26.1549 95.8356 26.3546C96.0515 26.5553 96.2188 26.7906 96.3386 27.0637C96.4584 27.3357 96.5177 27.6336 96.5177 27.9552C96.5177 28.2768 96.4584 28.5736 96.3386 28.8434C96.2188 29.1144 96.0515 29.3507 95.8356 29.5525C95.6198 29.7544 95.3651 29.9109 95.0704 30.0199C94.7758 30.1289 94.4552 30.1839 94.1098 30.1839ZM94.1098 29.4781C94.3365 29.4781 94.5437 29.4414 94.7337 29.3669C94.9236 29.2924 95.0888 29.1877 95.2301 29.0507C95.3705 28.9147 95.4805 28.7539 95.5593 28.5682C95.6381 28.3826 95.6781 28.1786 95.6781 27.9552C95.6781 27.7318 95.6392 27.5278 95.5626 27.3421C95.4859 27.1565 95.3759 26.9957 95.2323 26.8597C95.0888 26.7237 94.9225 26.6179 94.7326 26.5435C94.5426 26.469 94.3343 26.4323 94.1088 26.4323C93.8821 26.4323 93.6727 26.469 93.4784 26.5435C93.2842 26.6179 93.1169 26.7237 92.9755 26.8619C92.8341 27 92.724 27.1608 92.6431 27.3443C92.5621 27.5278 92.5211 27.7318 92.5211 27.9541C92.5211 28.1732 92.5621 28.375 92.6431 28.5607C92.724 28.7463 92.8352 28.9082 92.9755 29.0464C93.1158 29.1845 93.2842 29.2914 93.4784 29.3648C93.6727 29.4403 93.8832 29.4781 94.1098 29.4781Z" fill="black"/>
<path d="M97.4395 30.1225V25.7881H99.284C99.6811 25.7881 100.021 25.8485 100.305 25.9705C100.589 26.0924 100.808 26.2684 100.961 26.5004C101.114 26.7325 101.192 27.0077 101.192 27.3304C101.192 27.6488 101.116 27.9219 100.961 28.1507C100.808 28.3795 100.589 28.5576 100.305 28.6828C100.021 28.809 99.6811 28.8716 99.284 28.8716H97.9079L98.2727 28.5004V30.1225H97.4395ZM98.2716 28.5867L97.9068 28.1906H99.2451C99.6121 28.1906 99.8884 28.1151 100.074 27.965C100.26 27.8139 100.352 27.6024 100.352 27.3304C100.352 27.0584 100.26 26.8469 100.074 26.6958C99.8884 26.5447 99.6121 26.4702 99.2451 26.4702H97.9068L98.2716 26.0741V28.5867Z" fill="black"/>
<path d="M103.483 29.4102L101.499 25.7881H102.383L103.952 28.7853L103.483 29.4102ZM102.114 29.4404C102.348 29.5192 102.555 29.5397 102.734 29.5019C102.914 29.4652 103.071 29.339 103.208 29.1242L103.426 28.7961L103.509 28.7097L105.072 25.787H105.891L103.944 29.285C103.787 29.5742 103.6 29.7955 103.384 29.9509C103.168 30.1053 102.934 30.1916 102.679 30.2078C102.426 30.224 102.166 30.1786 101.901 30.0718L102.114 29.4404Z" fill="black"/>
<path d="M106.026 31.0442L106.033 29.4404H111.008V31.0442H110.24V30.1214H106.801V31.0442H106.026ZM109.542 29.7502V26.4691H107.787L107.754 27.2365C107.746 27.5257 107.727 27.7988 107.7 28.0567C107.672 28.3147 107.636 28.5489 107.588 28.7594C107.541 28.9698 107.475 29.1458 107.39 29.2861C107.304 29.4264 107.2 29.5192 107.075 29.5645L106.179 29.4404C106.34 29.4447 106.474 29.3897 106.579 29.2764C106.684 29.163 106.766 29.0033 106.825 28.7961C106.884 28.5899 106.93 28.3471 106.96 28.0686C106.99 27.7902 107.011 27.4858 107.024 27.1555L107.074 25.787H110.36V29.7491H109.542V29.7502Z" fill="black"/>
<path d="M113.87 30.1839C113.524 30.1839 113.203 30.1278 112.906 30.0166C112.609 29.9055 112.352 29.7479 112.134 29.5461C111.916 29.3442 111.748 29.1079 111.628 28.837C111.508 28.5671 111.449 28.2725 111.449 27.9552C111.449 27.6336 111.508 27.3368 111.628 27.0669C111.748 26.7971 111.916 26.5618 112.134 26.3611C112.352 26.1614 112.608 26.0049 112.903 25.8937C113.197 25.7826 113.519 25.7264 113.87 25.7264C114.215 25.7264 114.536 25.7815 114.83 25.8905C115.125 25.9995 115.38 26.1549 115.595 26.3546C115.811 26.5553 115.979 26.7906 116.098 27.0637C116.218 27.3357 116.278 27.6336 116.278 27.9552C116.278 28.2768 116.218 28.5736 116.098 28.8434C115.979 29.1144 115.811 29.3507 115.595 29.5525C115.38 29.7544 115.125 29.9109 114.83 30.0199C114.536 30.1289 114.216 30.1839 113.87 30.1839ZM113.87 29.4781C114.096 29.4781 114.303 29.4414 114.493 29.3669C114.683 29.2924 114.849 29.1877 114.99 29.0507C115.13 28.9147 115.24 28.7539 115.319 28.5682C115.398 28.3826 115.438 28.1786 115.438 27.9552C115.438 27.7318 115.399 27.5278 115.322 27.3421C115.246 27.1565 115.136 26.9957 114.992 26.8597C114.849 26.7237 114.682 26.6179 114.492 26.5435C114.302 26.469 114.094 26.4323 113.869 26.4323C113.642 26.4323 113.432 26.469 113.238 26.5435C113.044 26.6179 112.877 26.7237 112.735 26.8619C112.594 27 112.484 27.1608 112.403 27.3443C112.322 27.5278 112.281 27.7318 112.281 27.9541C112.281 28.1732 112.322 28.375 112.403 28.5607C112.484 28.7463 112.595 28.9082 112.735 29.0464C112.876 29.1845 113.044 29.2914 113.238 29.3648C113.434 29.4403 113.644 29.4781 113.87 29.4781Z" fill="black"/>
<path d="M117.199 30.1225V25.7881H119.203C119.712 25.7881 120.107 25.8841 120.389 26.0763C120.67 26.2684 120.812 26.5458 120.812 26.9095C120.812 27.2602 120.678 27.5322 120.411 27.7233C120.145 27.9154 119.786 28.0114 119.338 28.0114L119.46 27.7945C119.96 27.7945 120.346 27.8895 120.62 28.0794C120.893 28.2694 121.03 28.5478 121.03 28.9159C121.03 29.2958 120.886 29.5915 120.601 29.8041C120.315 30.0168 119.89 30.1225 119.327 30.1225H117.199ZM118.026 27.6326H119.14C119.409 27.6326 119.614 27.5808 119.755 27.4783C119.895 27.3747 119.967 27.2225 119.967 27.0196C119.967 26.8177 119.896 26.6645 119.755 26.5609C119.614 26.4573 119.41 26.4065 119.14 26.4065H118.026V27.6326ZM118.026 29.503H119.301C119.595 29.503 119.817 29.4501 119.963 29.3454C120.11 29.2397 120.185 29.0756 120.185 28.8533C120.185 28.6428 120.111 28.4852 119.963 28.3795C119.817 28.2737 119.595 28.2219 119.301 28.2219H118.026V29.503Z" fill="black"/>
<path d="M121.406 30.1225L123.423 25.7881H124.243L126.266 30.1225H125.389L123.66 26.2155H123.993L122.258 30.1225H121.406ZM122.334 29.1188L122.565 28.4874H124.98L125.204 29.1188H122.334Z" fill="black"/>
<path d="M127.784 30.1225H126.952V25.7881H127.784V30.1225ZM130.166 28.2651H127.72V27.5776H130.166V28.2651ZM130.102 25.7881H130.928V30.1225H130.102V25.7881Z" fill="black"/>
<path d="M132.19 30.1225V25.7881H133.015V28.8652L135.423 25.7881H136.198V30.1225H135.372V27.0519L132.971 30.1225H132.19Z" fill="black"/>
<path d="M138.285 29.4404H140.814V30.1214H137.452V25.787H140.725V26.468H138.285V29.4404ZM138.222 27.5894H140.45V28.2521H138.222V27.5894Z" fill="black"/>
<path d="M69.3216 30.5757H0.149536V0.692139H69.3216V30.5757ZM1.25905 29.4651H68.21V1.80273H1.25905V29.4651Z" fill="black"/>
<path d="M125.936 9.18626L127.685 6.22574L131.555 12.7199H134.352L129.06 3.94519H126.381L121.084 12.7199L123.849 12.7188L124.782 11.1376L125.936 9.18626Z" fill="black"/>
<path d="M140.473 9.18626L142.223 6.22574L146.093 12.7199H148.891L143.598 3.94519H140.919L135.622 12.7199L138.387 12.7188L139.32 11.1376L140.473 9.18626Z" fill="black"/>
<path d="M89.9318 5.89766C89.9577 5.89766 89.988 5.89766 90.0139 5.9009C90.4121 5.91385 90.7456 6.01314 91.0025 6.24087C91.2745 6.4686 91.4159 6.79024 91.4148 7.19929V9.4248C91.4148 9.81982 91.2734 10.1382 90.9939 10.3767C90.7262 10.6109 90.3765 10.7318 89.934 10.7383H84.4792L84.4803 9.53705V9.35464L84.4825 7.40112L82.0627 7.4022V9.53705L82.0605 12.7188H90.5514C91.5519 12.7188 92.3516 12.4274 92.9474 11.8338C93.5388 11.251 93.8335 10.5775 93.8335 9.81982V6.8442C93.8335 6.49882 93.7774 6.1772 93.663 5.87607C93.5183 5.48753 93.2798 5.13567 92.9485 4.81404C92.3689 4.2377 91.568 3.94629 90.5524 3.94629H81.0374L82.9725 5.9009" fill="black"/>
<path d="M124.446 10.6638V9.15491H127.675L128.575 10.6638H124.446Z" fill="black"/>
<path d="M95.5507 3.94519H97.9909L97.992 9.68921L104.304 3.94519H106.738L106.74 12.721H104.306L104.305 6.99744L97.9931 12.721H95.5528L95.5507 3.94519Z" fill="black"/>
<path d="M119.055 8.58297C118.854 8.36819 118.623 8.21385 118.355 8.11024C118.426 8.01957 118.481 7.96237 118.53 7.94294C118.995 7.48316 119.226 6.9338 119.226 6.2873C119.226 5.65052 118.995 5.10008 118.524 4.64138C118.055 4.17512 117.452 3.94739 116.707 3.94739H108.459L110.411 5.89876H110.876H115.821C116.532 5.89876 116.706 6.40063 116.706 6.62944C116.706 6.86041 116.624 7.06224 116.452 7.236C116.278 7.40653 116.065 7.40869 115.804 7.40869H112.312V7.40977H110.625L110.624 7.87279H110.63L110.629 9.12046H113.039H116.403C116.663 9.12046 116.88 9.20464 117.05 9.36869C117.225 9.53706 117.307 9.73781 117.307 9.96878C117.307 10.203 117.225 10.4048 117.05 10.5786C116.879 10.747 116.655 10.8301 116.383 10.8365H110.867H110.376C109.7 11.5187 108.455 12.721 108.455 12.721H117.172C117.946 12.7145 118.568 12.476 119.052 11.9968C119.54 11.5035 119.779 10.9337 119.779 10.2731C119.781 9.61909 119.542 9.0557 119.055 8.58297Z" fill="black"/>
<path d="M172.922 3.94409H163.687L161.733 5.8987H165.945L165.943 12.722H168.362L168.363 5.8987H170.969L172.922 3.94409Z" fill="black"/>
<path d="M152.594 10.7685H157.621C157.918 10.7685 158.524 10.749 158.524 10.0097C158.524 9.26177 157.952 9.26933 157.584 9.26933H152.6V9.27257H150.16L150.159 3.63H152.578V7.32228H157.812C158.977 7.32228 160.975 7.3471 160.975 10.0842C160.975 12.3691 159.046 12.7209 157.813 12.7209H150.162L152.113 10.7696L152.594 10.7685Z" fill="black"/>
<path d="M152.579 7.32117H150.162V12.7198H152.579V7.32117Z" fill="black"/>
</svg>
